<?xml version="1.0" encoding="UTF-8" standalone="no"?>
<svg
   width="165"
   height="165"
   version="1.1"
   style="clip-rule:evenodd;fill-rule:evenodd;image-rendering:optimizeQuality;shape-rendering:geometricPrecision;text-rendering:geometricPrecision"
   viewBox="0 0 165 165"
   id="svg9862"
   sodipodi:docname="android_icon.svg"
   inkscape:version="1.2-beta (1b65182, 2022-04-05)"
   xmlns:inkscape="http://www.inkscape.org/namespaces/inkscape"
   xmlns:sodipodi="http://sodipodi.sourceforge.net/DTD/sodipodi-0.dtd"
   xmlns="http://www.w3.org/2000/svg"
   xmlns:svg="http://www.w3.org/2000/svg">
  <sodipodi:namedview
     id="namedview9864"
     pagecolor="#ffffff"
     bordercolor="#666666"
     borderopacity="1.0"
     inkscape:pageshadow="2"
     inkscape:pageopacity="0.0"
     inkscape:pagecheckerboard="0"
     inkscape:deskcolor="#d1d1d1"
     showgrid="false"
     inkscape:zoom="3.6722536"
     inkscape:cx="99.66632"
     inkscape:cy="87.412264"
     inkscape:window-width="1861"
     inkscape:window-height="1025"
     inkscape:window-x="59"
     inkscape:window-y="27"
     inkscape:window-maximized="1"
     inkscape:current-layer="Camada_x0020_1" />
  <defs
     id="defs9854">
    <style
       type="text/css"
       id="style9852">  .fil0 {fill:#F0F0F0} .fil1 {fill:#011627;fill-rule:nonzero}  </style>
  </defs>
  <g
     id="Camada_x0020_1"
     inkscape:label="Camada 1"
     inkscape:groupmode="layer">
    <metadata
       id="CorelCorpID_0Corel-Layer" />
    <path
       class="fil1"
       d="m 21.938,64.720696 c 0,-3.1856 1.2953,-6.0562 3.3957,-8.1566 2.1004,-2.1004 4.9709,-3.3956 8.1565,-3.3956 1.5403,0 2.9756,0.28 4.3059,0.8051 0,-0.105 -0.035,-0.245 -0.035,-0.3851 0,-7.5614 2.0654,-14.6678 5.6711,-20.829 3.1856,-5.4611 7.5614,-10.187 12.7775,-13.8277 l -3.9558,-6.6163 c -1.0852,-1.7503 -1.3303,-3.7807004 -0.8402,-5.6361004 0.4551,-1.8553 1.6453,-3.5357 3.3957,-4.6209 1.7853,-1.0502 3.8157,-1.29520004 5.6711,-0.8401 1.8553,0.4551 3.5357,1.6453 4.5859,3.4306 l 4.7609,7.9116004 c 1.5753,-0.4551 3.1856,-0.8052 4.8309,-1.0852 2.4855,-0.3851 5.006,-0.6302 7.5615,-0.6302 2.6955,0 5.3561,0.2451 7.9466,0.7002 1.7503,0.315 3.4656,0.7001 5.146,1.2252 l 4.8659,-8.1216004 c 1.0852,-1.7853 2.7655,-2.9755 4.6209,-3.4306 1.8554,-0.45510004 3.8858,-0.2101 5.6361,0.8401 1.7853,1.0852 2.9756,2.7656 3.4307,4.6209 0.455,1.8554 0.21,3.8858004 -0.8402,5.6361004 l -4.2358,7.0364 c 5.076,3.6757 9.3118,8.3316 12.3924,13.7227 3.4657,6.0911 5.461,13.0925 5.461,20.5139 0,0.2451 -0.035,0.4551 -0.07,0.7002 1.5053,-0.7352 3.1506,-1.1202 4.936,-1.1202 3.1856,0 6.0562,1.2952 8.1916,3.3956 2.0654,2.0654 3.3606,4.971 3.3606,8.1566 V 110.1595 c 0,3.1857 -1.2952,6.0562 -3.3956,8.1566 -2.1004,2.1004 -4.971,3.3957 -8.1566,3.3957 -1.8204,0 -3.5357,-0.4201 -5.041,-1.1552 v 1.1902 c 0,3.8857 -1.5753,7.3864 -4.1308,9.9419 -0.07,0.07 -0.14,0.14 -0.21,0.2101 -2.5205,2.4154 -5.9512,3.9207 -9.7319,3.9207 h -2.4155 v 16.4182 c 0,3.2556 -1.2952,6.1962 -3.4307,8.2966 -2.1354,2.1704 -5.0759,3.4657 -8.3316,3.4657 -3.2206,0 -6.1612,-1.2953 -8.2966,-3.4307 -2.1354,-2.1354 -3.4657,-5.076 -3.4657,-8.3316 v -16.4182 h -7.4914 v 16.4182 c 0,3.2556 -1.2953,6.1962 -3.4307,8.2966 -2.1354,2.1704 -5.076,3.4657 -8.3316,3.4657 -3.2206,0 -6.1612,-1.2953 -8.2966,-3.4307 -2.1354,-2.1354 -3.4657,-5.076 -3.4657,-8.3316 V 135.8195 H 52.604 c -3.8858,0 -7.4215,-1.5753 -9.942,-4.1308 -2.5555,-2.5205 -4.1308,-6.0562 -4.1308,-9.9419 v -1.1902 c -1.5053,0.7351 -3.2206,1.1552 -5.041,1.1552 -3.1856,0 -6.0561,-1.2953 -8.1565,-3.3957 -2.1004,-2.1004 -3.3957,-4.9709 -3.3957,-8.1566 z m 75.6147,-34.9368 c 1.7853,0 3.2556,1.4703 3.2556,3.2557 0,1.8203 -1.4703,3.2556 -3.2556,3.2556 -1.8204,0 -3.2556,-1.4353 -3.2556,-3.2556 0,-1.7854 1.4352,-3.2557 3.2556,-3.2557 z m -30.1059,0 c 1.8204,0 3.2557,1.4703 3.2557,3.2557 0,1.8203 -1.4353,3.2556 -3.2557,3.2556 -1.7853,0 -3.2556,-1.4353 -3.2556,-3.2556 0,-1.7854 1.4703,-3.2557 3.2556,-3.2557 z m -22.9994,20.549 h 75.5096 c -0.455,-5.041 -2.0304,-9.8019 -4.4458,-14.0377 -3.0456,-5.3561 -7.4565,-9.8719 -12.8125,-13.1626 -1.5403,-0.9452 -1.9954,-2.9405 -1.0502,-4.4808 l 0.105,-0.1751 5.6711,-9.4868004 c 0.14,-0.2451 0.175,-0.4901 0.14,-0.7352 -0.07,-0.245 -0.245,-0.4901 -0.4551,-0.5951 -0.245,-0.14 -0.49,-0.175 -0.7351,-0.14 -0.245,0.07 -0.4901,0.245 -0.5951,0.4551 L 99.5481,18.336696 c -0.8052,1.3653 -2.4505,1.8904 -3.8858,1.3653 -2.1004,-0.7352 -4.3058,-1.3303 -6.6163,-1.7154 -2.2054,-0.385 -4.4808,-0.5951 -6.8263,-0.5951 -2.2754,0 -4.4459,0.175 -6.5463,0.5251 -2.1354,0.3501 -4.2358,0.8752 -6.2662,1.5753 -1.5403,0.5251 -3.1856,-0.175 -3.9207,-1.5403 L 59.5003,7.9746956 c -0.14,-0.2101 -0.3501,-0.3851 -0.5951,-0.4551 -0.2451,-0.035 -0.5251,0 -0.7352,0.14 -0.245,0.105 -0.385,0.3501 -0.455,0.5951 -0.07,0.2451 -0.035,0.4901 0.105,0.7352 l 5.6011,9.3118004 c 0.9101,1.5403 0.42,3.5357 -1.1203,4.4459 l -0.035,0.035 h 0.035 c -5.531,3.2556 -10.0819,7.8065 -13.2325,13.2325 -2.5205,4.3059 -4.1308,9.1368 -4.6209,14.3178 z m 0.5951,14.3878 v 45.438804 11.5873 c 0,2.1004 0.8402,3.9908 2.2054,5.321 1.3653,1.3653 3.2556,2.2405 5.3561,2.2405 h 6.1261 c 1.7854,0 3.2557,1.4352 3.2557,3.2556 v 19.6738 c 0,1.4703 0.5601,2.8006 1.5053,3.7457 0.9452,0.9452 2.2754,1.5053 3.7107,1.5053 1.4703,0 2.7655,-0.5951 3.7107,-1.5053 0.9452,-0.9802 1.5403,-2.2754 1.5403,-3.7457 v -19.6738 c 0,-1.8204 1.4703,-3.2556 3.2556,-3.2556 h 14.0378 c 1.7853,0 3.2556,1.4352 3.2556,3.2556 v 19.6738 c 0,1.4703 0.5601,2.8006 1.5053,3.7457 0.9452,0.9452 2.2754,1.5053 3.7107,1.5053 1.4703,0 2.7656,-0.5951 3.7107,-1.5053 0.9452,-0.9802 1.5403,-2.2754 1.5403,-3.7457 v -19.6738 c 0,-1.8204 1.4703,-3.2556 3.2557,-3.2556 h 5.6711 c 2.0304,0 3.8507,-0.8052 5.181,-2.0654 l 0.14,-0.1751 c 1.3653,-1.3652 2.2404,-3.2556 2.2404,-5.321 v -11.5873 -45.438804 -7.8765 H 45.0425 Z m 82.8961,-3.5707 c -0.9102,0.9102 -1.4703,2.1704 -1.4703,3.5707 V 110.1595 c 0,1.4003 0.5601,2.6605 1.4703,3.5707 0.9102,0.9102 2.1704,1.4703 3.5707,1.4703 1.4003,0 2.6605,-0.5601 3.5707,-1.4703 0.9102,-0.9102 1.4703,-2.1704 1.4703,-3.5707 V 64.720696 c 0,-1.4003 -0.5601,-2.6605 -1.4703,-3.5707 -0.9102,-0.9102 -2.1704,-1.4703 -3.5707,-1.4703 -1.4003,0 -2.6605,0.5601 -3.5707,1.4703 z m -98.019,0 c -0.9102,0.9102 -1.4703,2.1704 -1.4703,3.5707 V 110.1595 c 0,1.4003 0.5601,2.6605 1.4703,3.5707 0.9101,0.9102 2.1704,1.4703 3.5706,1.4703 1.4003,0 2.6606,-0.5601 3.5707,-1.4703 v 0 c 0.9102,-0.9102 1.4703,-2.1704 1.4703,-3.5707 V 64.720696 c 0,-1.4003 -0.5601,-2.6605 -1.4703,-3.5707 v 0 0 c -0.9101,-0.9102 -2.1704,-1.4703 -3.5707,-1.4703 -1.4002,0 -2.6605,0.5601 -3.5706,1.4703 z"
       id="path9859"
       style="fill:#000000;stroke-width:0.0350068" />
  </g>
</svg>
