<?xml version="1.0" encoding="UTF-8" standalone="no"?>
<svg
   width="165"
   height="165"
   version="1.1"
   style="clip-rule:evenodd;fill-rule:evenodd;image-rendering:optimizeQuality;shape-rendering:geometricPrecision;text-rendering:geometricPrecision"
   viewBox="0 0 4365.6249 4365.6249"
   id="svg83"
   sodipodi:docname="email_icon.svg"
   inkscape:version="1.2-beta (1b65182, 2022-04-05)"
   xml:space="preserve"
   xmlns:inkscape="http://www.inkscape.org/namespaces/inkscape"
   xmlns:sodipodi="http://sodipodi.sourceforge.net/DTD/sodipodi-0.dtd"
   xmlns="http://www.w3.org/2000/svg"
   xmlns:svg="http://www.w3.org/2000/svg"><sodipodi:namedview
     id="namedview85"
     pagecolor="#ffffff"
     bordercolor="#666666"
     borderopacity="1.0"
     inkscape:pageshadow="2"
     inkscape:pageopacity="0"
     inkscape:pagecheckerboard="false"
     inkscape:deskcolor="#d1d1d1"
     inkscape:document-units="mm"
     showgrid="false"
     inkscape:zoom="2.1469907"
     inkscape:cx="104.79785"
     inkscape:cy="23.754178"
     inkscape:window-width="1861"
     inkscape:window-height="1025"
     inkscape:window-x="59"
     inkscape:window-y="27"
     inkscape:window-maximized="1"
     inkscape:current-layer="Layer_x0020_1" /><defs
     id="defs70"><style
       type="text/css"
       id="style68">  .fil0 {fill:#F0F0F0} .fil1 {fill:#011627;fill-rule:nonzero}  </style><style
       type="text/css"
       id="style445">  .fil0 {fill:#F0F0F0} .fil1 {fill:#011627;fill-rule:nonzero}  </style></defs><g
     id="Layer_x0020_1"
     inkscape:label="Layer 1"
     inkscape:groupmode="layer"
     style="display:inline"><metadata
       id="CorelCorpID_0Corel-Layer" /><g
       id="_2744492898368"
       transform="matrix(1.0185896,0,0,1.0185908,-2474.1791,-2474.1797)"
       style="fill:#000000"><path
         class="fil1"
         d="m 2540,2980 h 4064 c 47,0 85,38 85,84 v 3016 c 0,46 -38,84 -85,84 H 2540 c -47,0 -85,-38 -85,-84 V 3064 c 0,-46 38,-84 85,-84 z m 3979,169 H 2625 v 2846 h 3894 z"
         id="path75"
         style="fill:#000000" /><path
         class="fil1"
         d="m 2480,3124 c -33,-33 -33,-86 0,-119 33,-33 86,-33 120,-1 l 2032,2032 c 33,33 33,86 0,119 -33,33 -86,33 -120,1 z"
         id="path77"
         style="fill:#000000" /><path
         class="fil1"
         d="m 6544,3004 c 34,-32 87,-32 120,1 33,33 33,86 0,119 L 4632,5156 c -33,32 -87,32 -120,-1 -33,-33 -33,-86 1,-119 z"
         id="path79"
         style="fill:#000000" /></g></g></svg>
