<?xml version="1.0" encoding="UTF-8" standalone="no"?>
<!-- Created with Inkscape (http://www.inkscape.org/) -->

<svg
   version="1.1"
   id="svg26"
   width="165"
   height="165"
   viewBox="0 0 165 165"
   sodipodi:docname="github_icon.svg"
   xml:space="preserve"
   inkscape:version="1.2-beta (1b65182, 2022-04-05)"
   xmlns:inkscape="http://www.inkscape.org/namespaces/inkscape"
   xmlns:sodipodi="http://sodipodi.sourceforge.net/DTD/sodipodi-0.dtd"
   xmlns="http://www.w3.org/2000/svg"
   xmlns:svg="http://www.w3.org/2000/svg"><defs
     id="defs30"><style
       type="text/css"
       id="style68">  .fil0 {fill:#F0F0F0} .fil1 {fill:#011627;fill-rule:nonzero}  </style><style
       type="text/css"
       id="style445">  .fil0 {fill:#F0F0F0} .fil1 {fill:#011627;fill-rule:nonzero}  </style></defs><sodipodi:namedview
     id="namedview28"
     pagecolor="#ffffff"
     bordercolor="#666666"
     borderopacity="1.0"
     inkscape:pageshadow="2"
     inkscape:pageopacity="0.0"
     inkscape:pagecheckerboard="0"
     inkscape:deskcolor="#d1d1d1"
     showgrid="false"
     showguides="true"
     inkscape:zoom="4"
     inkscape:cx="78.75"
     inkscape:cy="89.75"
     inkscape:window-width="1861"
     inkscape:window-height="1025"
     inkscape:window-x="59"
     inkscape:window-y="27"
     inkscape:window-maximized="1"
     inkscape:current-layer="layer2"><inkscape:page
       x="0"
       y="0"
       id="page32"
       width="165"
       height="165" /></sodipodi:namedview><g
     inkscape:groupmode="layer"
     id="layer2"
     inkscape:label="ciz"
     style="display:inline"><g
       id="g15820"
       style="stroke:#000000;stroke-width:6.41484;stroke-dasharray:none;stroke-opacity:1"
       transform="matrix(0.97414755,0,0,0.97414755,-190.76007,6.0007087)"><path
         style="fill:none;stroke:#000000;stroke-width:6.41484;stroke-linecap:butt;stroke-linejoin:miter;stroke-dasharray:none;stroke-opacity:1"
         d="m 280.51666,38.936002 c -4.05199,-0.0076 -7.75384,0.358681 -11.33655,0.852247 -3.07624,0.445838 -5.99826,1.085874 -8.81612,1.857083 -2.89631,-1.847755 -5.70147,-3.736398 -9.17456,-5.325457 -2.3351,-0.958983 -4.33375,-2.042768 -7.48774,-2.668686 -0.64702,-0.12485 -1.06052,-0.243537 -2.46343,-0.388335 -1.03852,-0.05489 -2.0811,-0.122536 -3.02227,0.129145 -0.72354,1.802287 -1.29614,3.786 -1.72982,5.730678 -0.54863,2.219292 -0.58249,4.441672 -0.67597,6.663695 -0.0174,1.479868 0.17599,2.925607 0.37981,4.369663 0.20305,1.592734 0.75112,3.058564 1.24598,4.543964 -0.95464,1.068677 -1.85304,2.140765 -2.59876,3.222119 -1.10546,1.54624 -2.00673,3.147002 -2.7815,4.781541 -1.10399,2.223682 -1.51148,4.122674 -2.09105,6.101885 -0.3417,1.483767 -0.56972,2.996837 -0.70141,4.534739 -0.17373,1.760269 -0.0979,3.464262 -0.11363,5.188908 0.0617,2.452663 0.42908,4.815321 0.6614,7.217746 0.27427,2.08929 0.79986,3.997965 1.29872,5.925844 0.60503,2.41673 1.74424,4.652293 2.81646,6.910575 0.80798,1.573164 1.86743,3.023494 2.96019,4.457544 0.96633,1.09473 1.85351,2.20523 3.06354,3.25143 l 1.75189,1.46995 c 1.53887,1.12617 3.10562,2.24036 5.04512,3.19447 l 3.02357,1.38713 c 1.56881,0.64615 3.1552,1.16248 4.83496,1.65303 1.3253,0.39162 2.68383,0.6803 4.03794,0.9827 1.42643,0.29205 2.90226,0.55408 4.4481,0.77356 l 2.73246,0.35083 c -0.64016,0.63218 -1.32089,1.25887 -1.75907,1.91839 -0.57516,0.83601 -1.144,1.67432 -1.5406,2.57537 -0.29281,0.63263 -0.57071,1.32999 -0.92064,2.32121 -0.26538,0.75778 -0.47834,1.60504 -0.65126,2.52063 -0.0816,0.46559 -0.18225,0.7802 -0.24043,1.43106 0,0 -1.93226,0.79291 -2.92803,1.10315 -0.85892,0.2676 -1.72668,0.53794 -2.61915,0.65135 l -2.47883,0.31499 c -0.50643,0.0644 -1.02068,0.0445 -1.53111,0.0355 -0.45009,-0.008 -0.90017,-0.035 -1.34818,-0.079 -0.4104,-0.0403 -0.82304,-0.0794 -1.22549,-0.16931 l -1.29752,-0.29002 -1.45368,-0.47519 c 0,0 -0.95432,-0.36945 -1.39525,-0.62494 l -1.30211,-0.75448 c 0,0 -1.01157,-0.68842 -1.47362,-1.08738 -1.53415,-1.32469 -1.95621,-1.98443 -2.7253,-2.85167 -0.98973,-1.25121 -1.82073,-2.88366 -2.84633,-4.22348 -0.92799,-1.21231 -3.19512,-3.28162 -3.19512,-3.28162 -1.16737,-0.92967 -2.27714,-1.55706 -3.36911,-2.09097 -0.86691,-0.39236 -1.44802,-0.63957 -2.68687,-0.89486 -0.70413,-0.13368 -1.38547,-0.25374 -1.89763,-0.27267 -0.90805,0.0266 -1.77703,0.11631 -2.54822,0.36394 -0.28238,0.15055 -0.54458,0.18878 -0.858,0.51205 h -1e-5 c -0.35926,0.38967 -0.3042,0.71355 -0.18512,1.02726 0.24922,0.57527 0.39934,0.69151 0.57591,0.93024 0.27523,0.32311 0.57459,0.64389 0.98689,0.95379 0.30809,0.25387 0.61868,0.50401 0.94411,0.73198 l 0.53377,0.3754 c 0,0 0.6389,0.36648 0.94268,0.57399 0.33003,0.22544 0.64523,0.47264 0.95335,0.72721 0.30813,0.25458 0.894,0.79909 0.894,0.79909 0,0 1e-5,1e-5 2e-5,1e-5 0.37028,0.28949 0.65607,0.6618 0.85759,0.87597 0.46105,0.49 1.29583,1.54751 1.29583,1.54751 0,0 0.64389,0.86928 0.942,1.32029 0.39775,0.60175 1.12815,1.84664 1.12815,1.84664 l 1.1599,2.2875 c 0,0 0.58625,1.45212 0.90677,2.1663 0.14947,0.33306 0.47368,0.98745 0.47368,0.98745 0,0 0.39203,0.6982 0.61088,1.0331 0.27816,0.42567 0.5763,0.8388 0.89084,1.23834 0.25807,0.3278 0.53141,0.64394 0.81605,0.94895 0.3231,0.34623 0.66011,0.68007 1.01067,0.99846 0.3431,0.31161 1.06763,0.89079 1.06763,0.89079 0,0 0.79231,0.58164 1.20622,0.84595 0.44361,0.28328 0.90026,0.54694 1.36639,0.79141 0.44339,0.23255 1.35827,0.64124 1.35827,0.64124 l 1.34188,0.51292 1.58243,0.47249 1.25427,0.2852 c 0.55996,0.11963 1.12597,0.23103 1.73773,0.28021 0.81626,0.0898 1.55913,0.1527 2.22559,0.18744 0.0399,0.01 2.21853,0.01 3.16278,-0.0174 1.47979,-0.0424 4.47896,-0.47648 4.4829,-0.49914 l 2.39817,-0.46062 0.0418,6.20468 0.0586,7.007 0.009,1.77898 -0.10928,0.99654 c -0.0463,0.42228 -0.24017,0.85647 -0.41878,1.11134 -0.45893,0.65488 -0.20611,0.35754 -0.749,0.93763 -0.35609,0.30344 -0.71808,0.58185 -1.12427,0.67287 -0.34487,0.148 -0.73071,0.26289 -1.24878,0.27094 -0.44664,0.0193 -0.89329,0.0298 -1.33993,-0.0367 -0.15578,-0.0149 -0.31615,-0.0335 -0.51129,-0.0793 l -1.40434,-0.4819 -3.03773,-1.14399 c 0,0 -4.23869,-1.8024 -6.29388,-2.83807 -2.06578,-1.04101 -4.08627,-2.17586 -6.0568,-3.38752 -1.80903,-1.11235 -3.57951,-2.29247 -5.2845,-3.55853 -2.27843,-1.69187 -4.49015,-3.48074 -6.59424,-5.38506 -1.96006,-1.77396 -3.83818,-3.64474 -5.60235,-5.61362 -2.10757,-2.35213 -4.08651,-4.82478 -5.93426,-7.38606 -1.41868,-1.96652 -2.72112,-4.01864 -3.94438,-6.11231 -1.17302,-2.00768 -2.25699,-4.06991 -3.24884,-6.173 -1.00277,-2.12624 -2.00527,-4.26671 -2.72625,-6.50426 0,0 -1.43716,-4.13503 -2.01232,-6.24518 -0.70257,-2.57757 -1.31899,-5.184642 -1.75294,-7.820766 -0.56351,-3.42317 -1.17245,-6.881046 -1.09923,-10.349516 0,0 -0.0761,-6.844023 0.21634,-10.248366 0.30461,-3.545598 0.86427,-7.073539 1.59853,-10.555623 0.53299,-2.527607 1.2458,-5.017802 2.03232,-7.478343 0.64136,-2.006407 1.36994,-3.987263 2.18719,-5.928683 1.04564,-2.483984 2.19714,-4.927174 3.46907,-7.303251 1.15505,-2.157739 2.41106,-4.265189 3.77202,-6.299343 1.63521,-2.444065 3.38677,-4.816059 5.26679,-7.077225 1.83282,-2.204388 3.79021,-4.309998 5.84641,-6.307642 1.99948,-1.942537 4.09936,-3.788248 6.29528,-5.505601 2.46201,-1.925451 5.02357,-3.734724 7.6917,-5.362583 2.92018,-1.781637 5.95359,-3.3905522 9.07015,-4.8007632 2.90211,-1.3131715 5.89594,-2.433768 8.93329,-3.3935339 2.74852,-0.8684989 5.55386,-1.5673992 8.38055,-2.1317044 2.6236,-0.5237603 5.27875,-0.9040552 7.94187,-1.15976476 2.59151,-0.24883411 7.80188,-0.36261071 7.80188,-0.36261071"
         id="path13245"
         sodipodi:nodetypes="cccccccccccccccccccccccccccccccccsssassccscscsccccccccccccsscsscsccscsssscssccccccscccccsscccccccssssaaaasaasaaaaaaaaaaaaaac" /><path
         style="display:inline;fill:none;stroke:#000000;stroke-width:6.41484;stroke-linecap:butt;stroke-linejoin:miter;stroke-dasharray:none;stroke-opacity:1"
         d="m 280.26876,38.936002 c 4.05199,-0.0076 7.9924,0.358681 11.57511,0.852247 3.07624,0.445838 5.99826,1.085874 8.81612,1.857083 2.89631,-1.847755 5.70147,-3.736398 9.17456,-5.325457 2.3351,-0.958983 4.33375,-2.042768 7.48774,-2.668686 0.64702,-0.12485 1.06052,-0.243537 2.46343,-0.388335 1.03852,-0.05489 2.0811,-0.122536 3.02227,0.129145 0.72354,1.802287 1.29614,3.786 1.72982,5.730678 0.54863,2.219292 0.58249,4.441672 0.67597,6.663695 0.0174,1.479868 -0.17599,2.925607 -0.37981,4.369663 -0.20305,1.592734 -0.75112,3.058564 -1.24598,4.543964 0.95464,1.068677 1.85304,2.140765 2.59876,3.222119 1.10546,1.54624 2.00673,3.147002 2.7815,4.781541 1.10399,2.223682 1.51148,4.122674 2.09105,6.101885 0.3417,1.483767 0.56972,2.996837 0.70141,4.534739 0.17373,1.760269 0.0979,3.464262 0.11363,5.188908 -0.0617,2.452663 -0.42908,4.815321 -0.6614,7.217746 -0.27427,2.08929 -0.79986,3.997965 -1.29872,5.925844 -0.60503,2.41673 -1.74424,4.652293 -2.81646,6.910575 -0.80798,1.573164 -1.86743,3.023494 -2.96019,4.457544 -0.96633,1.09473 -1.85351,2.20523 -3.06354,3.25143 l -1.75189,1.46995 c -1.53887,1.12617 -3.10562,2.24036 -5.04512,3.19447 l -3.02357,1.38713 c -1.56881,0.64615 -3.1552,1.16248 -4.83496,1.65303 -1.3253,0.39162 -2.68383,0.6803 -4.03794,0.9827 -1.42643,0.29205 -2.90226,0.55408 -4.4481,0.77356 l -2.73246,0.35083 c 0.64016,0.63218 1.32089,1.25887 1.75907,1.91839 0.57516,0.83601 1.144,1.67432 1.5406,2.57537 0.29281,0.63263 0.57071,1.32999 0.92064,2.32121 0.26538,0.75778 0.47834,1.60504 0.65126,2.52063 0.0816,0.46559 0.18225,0.7802 0.24043,1.43106 0.19575,1.57486 0.30904,3.18112 0.26784,4.84623 -0.002,2.77124 -0.007,4.39293 -0.0105,6.33913 l -0.0418,6.20468 -0.0586,7.007 -0.009,1.77898 0.10928,0.99654 c 0.0463,0.42228 0.24017,0.85647 0.41878,1.11134 0.45893,0.65488 0.20611,0.35754 0.749,0.93763 0.35609,0.30344 0.71808,0.58185 1.12427,0.67287 0.34487,0.148 0.73071,0.26289 1.24878,0.27094 0.44664,0.0193 0.89329,0.0298 1.33993,-0.0367 0.15578,-0.0149 0.31615,-0.0335 0.51129,-0.0793 l 1.40434,-0.4819 3.03773,-1.14399 c 0,0 4.23869,-1.8024 6.29388,-2.83807 2.06578,-1.04101 4.08627,-2.17586 6.0568,-3.38752 1.80903,-1.11235 3.57951,-2.29247 5.2845,-3.55853 2.27843,-1.69187 4.49015,-3.48074 6.59424,-5.38506 1.96006,-1.77396 3.83818,-3.64474 5.60235,-5.61362 2.10757,-2.35213 4.08651,-4.82478 5.93426,-7.38606 1.41868,-1.96652 2.72112,-4.01864 3.94438,-6.11231 1.17302,-2.00768 2.25699,-4.06991 3.24884,-6.173 1.00277,-2.12624 2.00527,-4.26671 2.72625,-6.50426 0,0 1.43716,-4.13503 2.01232,-6.24518 0.70257,-2.57757 1.31899,-5.184642 1.75294,-7.820766 0.56351,-3.42317 1.17245,-6.881046 1.09923,-10.349516 0,0 0.0761,-6.844023 -0.21634,-10.248366 -0.30461,-3.545598 -0.86427,-7.073539 -1.59853,-10.555623 -0.53299,-2.527607 -1.2458,-5.017802 -2.03232,-7.478343 -0.64136,-2.006407 -1.36994,-3.987263 -2.18719,-5.928683 -1.04564,-2.483984 -2.19714,-4.927174 -3.46907,-7.303251 -1.15505,-2.157739 -2.41106,-4.265189 -3.77202,-6.299343 -1.63521,-2.444065 -3.38677,-4.816059 -5.26679,-7.077225 -1.83282,-2.204388 -3.79021,-4.309998 -5.84641,-6.307642 -1.99948,-1.942537 -4.09936,-3.788248 -6.29528,-5.505601 -2.46201,-1.925451 -5.02357,-3.734724 -7.6917,-5.362583 -2.92018,-1.781637 -5.95359,-3.3905521 -9.07015,-4.8007631 -2.90211,-1.313172 -5.89594,-2.433768 -8.93329,-3.393534 -2.74852,-0.868499 -5.55386,-1.567399 -8.38055,-2.131704 -2.6236,-0.523761 -5.27888,-0.90271032 -7.94187,-1.15976507 -2.57246,-0.248316 -7.81306,-0.35492996 -7.81306,-0.35492996"
         id="path13245-3"
         sodipodi:nodetypes="ccccccccccccccccccccccccccccccccccccccsscccccccssssaaaasaasaaaaaaaaaaaaasc" /></g></g></svg>
