<?xml version="1.0" encoding="UTF-8" standalone="no"?>
<svg
   width="165"
   height="165"
   version="1.1"
   style="clip-rule:evenodd;fill-rule:evenodd;image-rendering:optimizeQuality;shape-rendering:geometricPrecision;text-rendering:geometricPrecision"
   viewBox="0 0 87.957029 87.95703"
   id="svg7171"
   sodipodi:docname="instagram_icon.svg"
   inkscape:version="1.2-beta (1b65182, 2022-04-05)"
   xmlns:inkscape="http://www.inkscape.org/namespaces/inkscape"
   xmlns:sodipodi="http://sodipodi.sourceforge.net/DTD/sodipodi-0.dtd"
   xmlns="http://www.w3.org/2000/svg"
   xmlns:svg="http://www.w3.org/2000/svg">
  <sodipodi:namedview
     id="namedview7173"
     pagecolor="#ffffff"
     bordercolor="#666666"
     borderopacity="1.0"
     inkscape:pageshadow="2"
     inkscape:pageopacity="0.0"
     inkscape:pagecheckerboard="0"
     inkscape:deskcolor="#d1d1d1"
     inkscape:document-units="mm"
     showgrid="false"
     inkscape:zoom="2.1469907"
     inkscape:cx="172.8"
     inkscape:cy="172.8"
     inkscape:window-width="1861"
     inkscape:window-height="1025"
     inkscape:window-x="59"
     inkscape:window-y="27"
     inkscape:window-maximized="1"
     inkscape:current-layer="Camada_x0020_1" />
  <defs
     id="defs7163">
    <style
       type="text/css"
       id="style7161">  .fil0 {fill:#F0F0F0} .fil1 {fill:#011627;fill-rule:nonzero}  </style>
  </defs>
  <g
     id="Camada_x0020_1"
     inkscape:label="Camada 1"
     inkscape:groupmode="layer">
    <metadata
       id="CorelCorpID_0Corel-Layer" />
    <path
       class="fil1"
       d="m 19.276678,0.53307291 h 49.403675 c 5.16173,0 9.84763,2.11020699 13.24051,5.50308899 3.39289,3.392882 5.50309,8.0787841 5.50309,13.2405161 v 49.403675 c 0,5.16173 -2.1102,9.84763 -5.50309,13.24051 -3.39288,3.39289 -8.08912,5.50309 -13.24051,5.50309 H 19.276678 c -5.161732,0 -9.8476341,-2.1102 -13.2405161,-5.50309 -3.392882,-3.39288 -5.50308899,-8.08912 -5.50308899,-13.24051 V 19.276678 c 0,-5.161732 2.11020699,-9.8476341 5.50308899,-13.2405161 C 9.4290439,2.6432799 14.12529,0.53307291 19.276678,0.53307291 Z M 70.407823,12.573667 c 1.37577,0 2.61707,0.54824 3.51701,1.458525 0.89995,0.899942 1.45853,2.14124 1.45853,3.517012 0,1.365429 -0.55858,2.606727 -1.45853,3.506668 -0.0414,0.04138 -0.0827,0.07241 -0.12413,0.113786 -0.88959,0.837876 -2.07917,1.34474 -3.39288,1.34474 -1.36543,0 -2.60672,-0.54824 -3.50667,-1.458526 l -0.0103,-0.01034 c -0.89994,-0.899941 -1.45853,-2.130895 -1.45853,-3.496324 0,-1.365428 0.55859,-2.606726 1.45853,-3.506667 v -0.01035 0 c 0.89994,-0.899941 2.14124,-1.458525 3.51701,-1.458525 z m 1.01373,3.951466 c -0.2586,-0.258604 -0.62065,-0.42411 -1.01373,-0.42411 -0.39308,0 -0.75512,0.165506 -1.01372,0.42411 v 0 c -0.25861,0.258604 -0.41377,0.620649 -0.41377,1.024071 0,0.393078 0.15516,0.755124 0.41377,1.013727 0.2586,0.268948 0.62064,0.424111 1.02407,0.424111 0.37239,0 0.7034,-0.134474 0.962,-0.362046 l 0.0621,-0.06206 c 0.2586,-0.258603 0.42411,-0.620649 0.42411,-1.013727 0,-0.403422 -0.16551,-0.755123 -0.42411,-1.024071 z m -27.443038,3.268753 c 6.682318,0 12.723308,2.710168 17.098888,7.085744 4.37557,4.375577 7.08574,10.426906 7.08574,17.098885 0,6.682318 -2.71017,12.723308 -7.08574,17.098888 -4.37558,4.37557 -10.42691,7.08574 -17.098888,7.08574 -6.682323,0 -12.723308,-2.71017 -17.098885,-7.08574 -4.375576,-4.37558 -7.085744,-10.42691 -7.085744,-17.098888 0,-6.682323 2.710168,-12.723308 7.085744,-17.098885 4.375577,-4.375576 10.426906,-7.085744 17.098885,-7.085744 z m 14.605948,9.578685 c -3.73424,-3.734239 -8.90632,-6.051329 -14.605948,-6.051329 -5.699628,0 -10.871705,2.306746 -14.605944,6.051329 -3.734239,3.734239 -6.051329,8.906316 -6.051329,14.605944 0,5.699628 2.306746,10.871708 6.051329,14.605948 3.734239,3.73423 8.906316,6.05133 14.605944,6.05133 5.699628,0 10.871708,-2.3171 14.605948,-6.05133 3.73423,-3.73424 6.05133,-8.90632 6.05133,-14.605948 0,-5.699628 -2.3171,-10.871705 -6.05133,-14.605944 z M 68.680353,4.0604289 H 19.276678 c -4.179038,0 -7.985686,1.717129 -10.7475751,4.468674 -2.761889,2.7618891 -4.468674,6.5685371 -4.468674,10.7475751 v 49.403675 c 0,4.17904 1.717129,7.98568 4.468674,10.74757 2.7618891,2.76189 6.5685371,4.46868 10.7475751,4.46868 h 49.403675 c 4.17904,0 7.98568,-1.71713 10.74757,-4.46868 2.76189,-2.76189 4.46868,-6.56853 4.46868,-10.74757 V 19.276678 c 0,-4.179038 -1.71713,-7.99603 -4.46868,-10.7475751 -2.76189,-2.761889 -6.56853,-4.468674 -10.74757,-4.468674 z"
       id="path7168"
       style="fill:#000000;stroke-width:1.03442" />
  </g>
</svg>
