<?xml version="1.0" encoding="UTF-8" standalone="no"?>
<svg
   width="165"
   height="165"
   version="1.1"
   style="clip-rule:evenodd;fill-rule:evenodd;image-rendering:optimizeQuality;shape-rendering:geometricPrecision;text-rendering:geometricPrecision"
   viewBox="0 0 4365.6249 4365.6249"
   id="svg560"
   sodipodi:docname="linkedin_icon.svg"
   inkscape:version="1.2-beta (1b65182, 2022-04-05)"
   xmlns:inkscape="http://www.inkscape.org/namespaces/inkscape"
   xmlns:sodipodi="http://sodipodi.sourceforge.net/DTD/sodipodi-0.dtd"
   xmlns="http://www.w3.org/2000/svg"
   xmlns:svg="http://www.w3.org/2000/svg">
  <sodipodi:namedview
     id="namedview562"
     pagecolor="#ffffff"
     bordercolor="#666666"
     borderopacity="1.0"
     inkscape:pageshadow="2"
     inkscape:pageopacity="0.0"
     inkscape:pagecheckerboard="0"
     inkscape:deskcolor="#d1d1d1"
     inkscape:document-units="mm"
     showgrid="false"
     inkscape:zoom="2.1469907"
     inkscape:cx="97.345554"
     inkscape:cy="98.277091"
     inkscape:window-width="1861"
     inkscape:window-height="1025"
     inkscape:window-x="59"
     inkscape:window-y="27"
     inkscape:window-maximized="1"
     inkscape:current-layer="Layer_x0020_1" />
  <defs
     id="defs551">
    <style
       type="text/css"
       id="style549">  .fil0 {fill:#F0F0F0} .fil1 {fill:#011627;fill-rule:nonzero}  </style>
  </defs>
  <g
     id="Layer_x0020_1"
     inkscape:label="Layer 1"
     inkscape:groupmode="layer">
    <metadata
       id="CorelCorpID_0Corel-Layer" />
    <g
       id="_2744712271136"
       style="fill:#000000"
       transform="matrix(0.99416971,0,0,0.99416971,12.727606,12.726533)">
      <path
         class="fil1"
         d="m 1507.8113,1420.8151 h 917 c 47,0 84,38 84,85 v 106 c 205,-203 345,-201 725,-196 47,0 101,1 201,1 252,0 481,104 647,271 166,168 270,399 270,651 v 1876 c 0,47 -38,85 -85,85 h -917 c -47,0 -85,-38 -85,-85 v -1632 c 0,-104 -42,-199 -111,-267 -68,-69 -163,-111 -267,-111 -97,0 -186,36 -254,95 -66,59 -112,140 -124,231 v 1684 c 0,47 -37,85 -84,85 h -917 c -47,0 -85,-38 -85,-85 v -2709 c 0,-47 38,-85 85,-85 z m -1392.00005,0 h 917.00005 c 46,0 84,38 84,85 v 2709 c 0,47 -38,85 -84,85 H 115.81125 c -47,0 -85,-38 -85,-85 v -2709 c 0,-47 38,-85 85,-85 z m 832,169 h -748 v 2540 h 748 z m -374,-1523.999997 c 155,0 295,62.999997 396,163.999997 101.00005,102 164.00005,242 164.00005,396 0,155 -63,295 -164.00005,396 -101,101 -241,164 -396,164 -155,0 -294,-63 -396,-164 -101,-101 -164,-241 -164,-396 0,-154 63,-294 164,-396 102,-101 241,-163.999997 396,-163.999997 z m 276,283.999997 c -70,-71 -168,-114 -276,-114 -108,0 -205,43 -276,114 -71,71 -114,168 -114,276 0,108 43,206 114,276 71,70.99999 168,115 276,115 108,0 206,-44.00001 276,-115 71,-70 115,-168 115,-276 0,-108 -44,-205 -115,-276 z m 1490.00005,1240 h -748 v 2540 h 748 v -1603 c 0,-3 0,-6 1,-9 15,-137 82,-258 180,-345 98,-86 227,-138 366,-138 151,0 288,62 387,161 99,99 161,236 161,387 v 1547 h 747 v -1791 c 0,-206 -84,-395 -220,-532 -135,-136 -322,-221 -527,-221 -50,0 -130,-1 -203,-2 -396,-5 -488,-6 -738,299 -15,22 -40,37 -69,37 -47,0 -85,-38 -85,-85 z"
         id="path556"
         style="fill:#000000" />
    </g>
  </g>
</svg>
