<?xml version="1.0" encoding="UTF-8" standalone="no"?>
<svg
   width="165"
   height="165"
   version="1.1"
   style="clip-rule:evenodd;fill-rule:evenodd;image-rendering:optimizeQuality;shape-rendering:geometricPrecision;text-rendering:geometricPrecision"
   viewBox="0 0 4365.6249 4365.6249"
   id="svg3826"
   sodipodi:docname="location_icon.svg"
   inkscape:version="1.2-beta (1b65182, 2022-04-05)"
   xmlns:inkscape="http://www.inkscape.org/namespaces/inkscape"
   xmlns:sodipodi="http://sodipodi.sourceforge.net/DTD/sodipodi-0.dtd"
   xmlns="http://www.w3.org/2000/svg"
   xmlns:svg="http://www.w3.org/2000/svg">
  <sodipodi:namedview
     id="namedview3828"
     pagecolor="#ffffff"
     bordercolor="#666666"
     borderopacity="1.0"
     inkscape:pageshadow="2"
     inkscape:pageopacity="0.0"
     inkscape:pagecheckerboard="0"
     inkscape:deskcolor="#d1d1d1"
     inkscape:document-units="mm"
     showgrid="false"
     inkscape:zoom="2.4710648"
     inkscape:cx="172.8"
     inkscape:cy="108.05059"
     inkscape:window-width="1861"
     inkscape:window-height="1025"
     inkscape:window-x="59"
     inkscape:window-y="27"
     inkscape:window-maximized="1"
     inkscape:current-layer="Layer_x0020_1" />
  <defs
     id="defs3817">
    <style
       type="text/css"
       id="style3815">  .fil0 {fill:#F0F0F0} .fil1 {fill:#011627;fill-rule:nonzero}  </style>
  </defs>
  <g
     id="Layer_x0020_1"
     inkscape:label="Layer 1"
     inkscape:groupmode="layer">
    <metadata
       id="CorelCorpID_0Corel-Layer" />
    <g
       id="_2744591182304"
       style="fill:#000000">
      <path
         class="fil1"
         d="m 2182.8158,4070.6885 1208,-2211.3675 c 23,-64.5512 40,-131.0584 52,-198.5438 12,-68.4634 18,-138.8829 18,-211.2584 0,-345.2511 -143,-658.22657 -374,-884.15577 -232,-225.9292 -551,-365.7901 -904,-365.7901 -353,0 -672,139.8609 -904,365.7901 -231,225.9292 -373.99998,538.90467 -373.99998,884.15577 0,72.3755 6,142.795 18,211.2584 12,67.4854 29,133.9926 52,198.5438 z m 0,-3398.71817 c 224,0 426,89.0024 572,232.7755 147,142.79507 238,340.36077 238,559.44367 0,44.9902 -4,89.0024 -12,133.0146 -8,44.0121 -19,87.0463 -34,129.1024 -56,156.4877 -161,290.4803 -297,384.373 -132,90.9585 -293,144.7512 -467,144.7512 -174,0 -335,-53.7927 -467,-144.7512 -136,-93.8927 -240,-227.8853 -296,-384.373 l -1,0.978 c -15,-42.0561 -26,-85.0902 -34,-130.0804 -8,-44.0122 -12,-88.0244 -12,-133.0146 0,-219.0829 91,-416.6486 238,-559.44367 146,-143.7731 348,-232.7755 572,-232.7755 z m 448,354.05347 c -115,-111.49747 -273,-180.93897 -448,-180.93897 -175,0 -333,69.4415 -448,180.93897 -114,112.4756 -185,267.0072 -185,438.1657 0,36.1878 3,71.3975 9,104.6512 6,34.2317 15,68.4633 26,100.7389 44,122.2561 126,226.9073 232,300.2609 103,71.3975 229,113.4536 366,113.4536 137,0 263,-42.0561 366,-113.4536 106,-73.3536 188,-178.0048 232,-300.2609 11,-32.2756 20,-65.5292 26,-100.7389 6,-33.2537 9,-68.4634 9,-104.6512 0,-171.1585 -71,-325.6901 -185,-438.1657 z m 919,906.6509 -1289,2360.0308 c -8,15.6488 -20,28.3634 -37,36.1878 -42,22.4951 -96,6.8463 -119,-35.2097 L 818.81582,1938.543 c -3,-5.8683 -6,-10.7586 -8,-17.6049 -27,-74.3317 -48,-152.5756 -62,-231.7975 -13,-79.2219 -21,-158.4438 -21,-239.6218 0,-393.1755 163,-748.20707 426.99998,-1006.41187 263,-257.2267 626,-416.648597 1028,-416.648597 402,0 765,159.421897 1028,416.648597 264,258.2048 427,613.23637 427,1006.41187 0,81.178 -8,160.3999 -21,239.6218 -14,79.2219 -35,157.4658 -62,231.7975 -1,3.9122 -3,7.8244 -5,11.7366 z"
         id="path3822"
         style="stroke-width:0.988963;fill:#000000" />
    </g>
  </g>
</svg>
