<?xml version="1.0" encoding="UTF-8" standalone="no"?>
<svg
   width="165"
   height="165"
   version="1.1"
   style="clip-rule:evenodd;fill-rule:evenodd;image-rendering:optimizeQuality;shape-rendering:geometricPrecision;text-rendering:geometricPrecision"
   viewBox="0 0 165 165"
   id="svg3284"
   sodipodi:docname="spotify_icon.svg"
   inkscape:version="1.2-beta (1b65182, 2022-04-05)"
   xmlns:inkscape="http://www.inkscape.org/namespaces/inkscape"
   xmlns:sodipodi="http://sodipodi.sourceforge.net/DTD/sodipodi-0.dtd"
   xmlns="http://www.w3.org/2000/svg"
   xmlns:svg="http://www.w3.org/2000/svg">
  <sodipodi:namedview
     id="namedview3286"
     pagecolor="#ffffff"
     bordercolor="#666666"
     borderopacity="1.0"
     inkscape:pageshadow="2"
     inkscape:pageopacity="0.0"
     inkscape:pagecheckerboard="0"
     inkscape:deskcolor="#d1d1d1"
     showgrid="false"
     inkscape:zoom="3.6722536"
     inkscape:cx="76.51977"
     inkscape:cy="64.538026"
     inkscape:window-width="1861"
     inkscape:window-height="1025"
     inkscape:window-x="59"
     inkscape:window-y="27"
     inkscape:window-maximized="1"
     inkscape:current-layer="Camada_x0020_1" />
  <defs
     id="defs3276">
    <style
       type="text/css"
       id="style3274">  .fil0 {fill:#F0F0F0} .fil1 {fill:#011627;fill-rule:nonzero}  </style>
  </defs>
  <g
     id="Camada_x0020_1"
     inkscape:label="Camada 1"
     inkscape:groupmode="layer">
    <metadata
       id="CorelCorpID_0Corel-Layer" />
    <path
       class="fil1"
       d="M 82.5,164 C 60.0172,164 39.6134,154.876 24.8687,140.1313 10.124,125.3866 1,104.9828 1,82.5 1,60.0172 10.124,39.6134 24.8687,24.8687 39.6134,10.124 60.0172,1 82.5,1 104.9828,1 125.3866,10.124 140.1313,24.8687 154.876,39.6134 164,60.0172 164,82.5 c 0,22.4828 -9.124,42.8866 -23.8687,57.6313 C 125.3866,154.876 104.9828,164 82.5,164 Z M 29.4884,135.5116 c 13.5513,13.5512 32.2997,21.9438 53.0116,21.9438 20.7119,0 39.4603,-8.3926 53.0116,-21.9438 13.5512,-13.5513 21.9438,-32.2997 21.9438,-53.0116 0,-20.7119 -8.3926,-39.4603 -21.9438,-53.0116 C 121.9603,15.9372 103.2119,7.5446 82.5,7.5446 61.7881,7.5446 43.0397,15.9372 29.4884,29.4884 15.9372,43.0397 7.5446,61.7881 7.5446,82.5 c 0,20.7119 8.3926,39.4603 21.9438,53.0116 z m 5.2742,-74.1469 c 0.385,-0.154 0.8855,-0.3465 1.4245,-0.5005 0.3079,-0.1155 0.8469,-0.2695 1.7709,-0.5775 1.3859,-0.4235 2.8488,-0.8084 4.3887,-1.2319 1.4244,-0.3465 2.9644,-0.7315 4.6583,-1.1164 11.6648,-2.6179 23.7916,-3.8883 35.803,-3.4264 11.1644,0.462 22.2518,2.4254 32.9157,6.2367 2.8488,1.0394 5.7361,2.1944 8.585,3.5803 2.8488,1.3089 5.5437,2.7334 8.1615,4.3118 0.7315,0.4234 1.54,0.5004 2.2714,0.3079 0.77,-0.1924 1.4244,-0.6544 1.8479,-1.3474 0.4235,-0.7314 0.539,-1.5399 0.3465,-2.3098 -0.1925,-0.7315 -0.6545,-1.4245 -1.3859,-1.8479 -2.8489,-1.694 -5.7362,-3.2339 -8.6236,-4.5813 -2.9258,-1.3859 -5.9671,-2.6179 -9.1624,-3.7728 -11.2799,-4.0423 -22.8678,-6.1211 -34.4171,-6.6216 -12.7043,-0.539 -25.4086,0.8469 -37.6895,3.5803 -2.6563,0.5774 -5.1202,1.2319 -7.2376,1.8094 -2.5023,0.7314 -4.4272,1.3474 -5.7361,1.8094 l -0.038,0.039 c -0.77,0.308 -1.3475,0.8469 -1.6555,1.5399 -0.3464,0.7315 -0.3849,1.5399 -0.1154,2.3099 l 0.038,0.077 c 0.308,0.7314 0.847,1.3089 1.54,1.6169 0.7314,0.3465 1.5399,0.385 2.3098,0.1155 z m 3.4263,5.6592 c -0.6544,0.2309 -1.0009,0.3464 -1.1549,0.4234 -2.4639,0.8855 -5.0432,0.7315 -7.2761,-0.2695 -2.1944,-1.0394 -4.0423,-2.8873 -4.9662,-5.3512 l -0.077,-0.2309 v -0.038 c -0.8085,-2.3869 -0.616,-4.8508 0.3465,-7.0067 1.0009,-2.1943 2.8873,-4.0422 5.3512,-4.9662 l 0.231,-0.077 c 1.5399,-0.5389 3.5418,-1.2319 6.0056,-1.8864 2.1174,-0.6159 4.6583,-1.2704 7.6226,-1.9249 12.7813,-2.8488 26.0631,-4.2732 39.3063,-3.6958 12.2424,0.5005 24.4847,2.6949 36.3805,6.9682 3.2339,1.1549 6.4677,2.4638 9.7015,4.0037 3.1953,1.5014 6.2751,3.1184 9.201,4.8893 2.2714,1.3474 3.7728,3.4648 4.3887,5.8131 0.616,2.3869 0.308,4.9663 -1.0394,7.2376 -1.3474,2.2714 -3.5033,3.7728 -5.8517,4.3503 -2.3483,0.616 -4.9277,0.308 -7.1991,-1.0394 -2.5023,-1.5015 -5.0432,-2.8489 -7.5841,-4.0423 -2.5408,-1.1935 -5.2357,-2.2714 -8.046,-3.2723 -10.048,-3.6188 -20.4809,-5.4667 -30.9523,-5.8902 -11.4724,-0.462 -23.0217,0.7699 -34.1861,3.2723 -1.5014,0.3465 -3.0029,0.693 -4.4273,1.0779 -1.5014,0.385 -2.8873,0.77 -4.1192,1.155 -0.4235,0.1155 -1.001,0.308 -1.6555,0.5005 z m 5.7362,17.94 c 0.154,-0.039 0.4235,-0.1925 0.77,-0.3465 h 0.039 c 0.231,-0.1155 0.5005,-0.231 0.8854,-0.385 0.8085,-0.3465 1.6554,-0.6545 2.5409,-0.9624 0.8854,-0.308 1.8094,-0.5775 2.8488,-0.8855 9.7785,-2.7333 21.2124,-3.6573 34.2246,-2.0404 11.6649,1.4244 24.6387,4.9662 38.8059,11.0489 0.77,0.308 1.6169,0.308 2.3099,0 0.7314,-0.2695 1.3474,-0.8469 1.6554,-1.5784 0.3465,-0.77 0.308,-1.6169 0.039,-2.3099 -0.2695,-0.7314 -0.847,-1.3474 -1.6169,-1.6554 C 111.5284,79.4202 97.7847,75.7629 85.2728,74.3 71.7601,72.683 59.7488,73.684 49.3543,76.5713 c -1.8864,0.539 -3.5033,1.078 -4.8122,1.5784 -1.4629,0.539 -2.6564,1.078 -3.5033,1.54 -0.7315,0.3849 -1.1934,1.0394 -1.4244,1.7709 -0.231,0.7314 -0.154,1.5784 0.231,2.3098 0.3849,0.7315 1.0394,1.232 1.7709,1.4629 0.7699,0.231 1.5784,0.154 2.3098,-0.2694 z m 3.4648,5.5822 v 0 L 47.005,90.7 c -2.2714,1.2705 -4.8893,1.463 -7.1991,0.77 -2.3484,-0.693 -4.4273,-2.3099 -5.6977,-4.6197 -1.232,-2.3099 -1.4244,-4.8893 -0.7315,-7.1991 0.693,-2.3484 2.2714,-4.4273 4.5813,-5.6977 1.0394,-0.539 2.4638,-1.1935 4.3502,-1.8864 1.5399,-0.5775 3.3108,-1.1935 5.3127,-1.7324 11.1644,-3.1569 24.0227,-4.2348 38.4209,-2.5024 13.0508,1.5399 27.4105,5.3512 42.9251,12.0113 2.4254,1.0395 4.1963,2.9644 5.1203,5.2358 0.8854,2.2328 0.9239,4.8507 -0.077,7.2761 -1.0395,2.4253 -2.9644,4.1962 -5.2358,5.0817 -2.2713,0.9239 -4.8507,0.9624 -7.2761,-0.077 -13.5897,-5.8132 -25.9475,-9.1625 -37.0349,-10.5484 -12.1268,-1.54 -22.7138,-0.693 -31.7223,1.8479 -0.8854,0.2309 -1.6939,0.5004 -2.4638,0.7699 -0.847,0.2695 -1.5784,0.5775 -2.1944,0.8085 -0.2695,0.1155 -0.5005,0.231 -0.693,0.308 z m -1.2704,17.17 c 0.154,-0.077 0.462,-0.1925 0.847,-0.308 l 1.0394,-0.3465 v 0 c 0.8085,-0.2694 1.7324,-0.5389 2.7334,-0.8084 0.8854,-0.231 1.8479,-0.462 2.9258,-0.7315 10.0479,-2.3098 20.6349,-3.0413 31.2218,-1.5784 9.7014,1.3474 19.4414,4.4658 28.8349,9.8555 0.7314,0.4234 1.5399,0.5004 2.2714,0.2695 0.7699,-0.1925 1.4244,-0.6545 1.8478,-1.386 v 0 c 0.385,-0.7314 0.5005,-1.5784 0.2695,-2.3098 -0.1925,-0.7315 -0.6929,-1.386 -1.4244,-1.8094 -10.1249,-5.8132 -20.5194,-9.1625 -30.8368,-10.587 -11.3954,-1.5784 -22.7137,-0.8084 -33.5316,1.694 -1.8864,0.4234 -3.4648,0.8084 -4.7353,1.1934 -1.5399,0.462 -2.7718,0.8854 -3.6958,1.2319 -0.7699,0.308 -1.3474,0.8855 -1.6554,1.6169 -0.308,0.693 -0.3465,1.5014 -0.039,2.3099 0.308,0.77 0.8855,1.3474 1.6169,1.6554 0.693,0.308 1.54,0.3465 2.3099,0.039 z m 2.9258,5.8517 c -0.2694,0.077 -0.4619,0.154 -0.5774,0.1925 -2.4254,0.9624 -5.0432,0.8469 -7.2761,-0.1155 -2.2329,-1.001 -4.0808,-2.8104 -5.0432,-5.2742 -0.9625,-2.4254 -0.847,-5.0432 0.1155,-7.2761 1.0009,-2.2329 2.8103,-4.0808 5.2742,-5.0432 1.0009,-0.385 2.3868,-0.8855 4.2347,-1.4245 1.5014,-0.4234 3.1954,-0.8854 5.0817,-1.3089 11.5494,-2.6564 23.6762,-3.4648 35.9186,-1.7709 11.1258,1.5399 22.2902,5.1587 33.1466,11.3569 2.3099,1.3089 3.8113,3.3878 4.4658,5.7747 0.6545,2.3483 0.385,4.9277 -0.924,7.2376 v -0.039 c -1.3089,2.3098 -3.3878,3.8497 -5.7361,4.4657 -2.3869,0.6545 -4.9663,0.385 -7.2376,-0.8854 -8.6621,-4.9663 -17.5936,-7.8536 -26.4481,-9.047 -9.8169,-1.3475 -19.5954,-0.693 -28.9504,1.4629 -0.8854,0.1925 -1.7709,0.4235 -2.6563,0.6544 -0.847,0.231 -1.6554,0.462 -2.4639,0.7315 v 0 z"
       id="path3281"
       style="stroke-width:0.0384979;fill:#000000" />
  </g>
</svg>
