<?xml version="1.0" encoding="UTF-8" standalone="no"?>
<svg
   width="165"
   height="165"
   version="1.1"
   style="clip-rule:evenodd;fill-rule:evenodd;image-rendering:optimizeQuality;shape-rendering:geometricPrecision;text-rendering:geometricPrecision"
   viewBox="0 0 165 165"
   id="svg2381"
   sodipodi:docname="twitch_icon.svg"
   inkscape:version="1.2-beta (1b65182, 2022-04-05)"
   xmlns:inkscape="http://www.inkscape.org/namespaces/inkscape"
   xmlns:sodipodi="http://sodipodi.sourceforge.net/DTD/sodipodi-0.dtd"
   xmlns="http://www.w3.org/2000/svg"
   xmlns:svg="http://www.w3.org/2000/svg">
  <sodipodi:namedview
     id="namedview2383"
     pagecolor="#ffffff"
     bordercolor="#666666"
     borderopacity="1.0"
     inkscape:pageshadow="2"
     inkscape:pageopacity="0.0"
     inkscape:pagecheckerboard="0"
     inkscape:deskcolor="#d1d1d1"
     showgrid="false"
     inkscape:zoom="2.5966754"
     inkscape:cx="112.06637"
     inkscape:cy="146.34097"
     inkscape:window-width="1861"
     inkscape:window-height="1025"
     inkscape:window-x="59"
     inkscape:window-y="27"
     inkscape:window-maximized="1"
     inkscape:current-layer="Camada_x0020_1" />
  <defs
     id="defs2373">
    <style
       type="text/css"
       id="style2371">  .fil0 {fill:#F0F0F0} .fil1 {fill:#011627;fill-rule:nonzero}  </style>
  </defs>
  <g
     id="Camada_x0020_1"
     inkscape:label="Camada 1"
     inkscape:groupmode="layer">
    <metadata
       id="CorelCorpID_0Corel-Layer" />
    <path
       class="fil1"
       d="M 84.078452,110.52646 H 118.68808 L 137.12855,92.08599 V 23.174797 H 34.146746 v 87.351663 h 31.144808 c 1.809327,0 3.272328,1.46291 3.272328,3.27233 v 10.89481 l 13.204691,-13.20469 c 0.616026,-0.65448 1.463001,-0.96245 2.309879,-0.96245 z M 71.68218,82.38448 h 6.005646 V 48.19839 H 71.68218 Z m 9.239515,6.50619 H 68.409851 c -1.809424,0 -3.233772,-1.463 -3.233772,-3.27232 V 44.96452 c 0,-1.809329 1.424348,-3.272233 3.233772,-3.272233 h 12.511844 c 1.809327,0 3.272328,1.462904 3.272328,3.272233 v 40.65383 c 0,1.80932 -1.463001,3.27232 -3.272328,3.27232 z m 22.059225,-6.50619 h 6.00565 V 48.19839 h -6.00565 z m 9.23952,6.50619 H 99.70859 c -1.80932,0 -3.272326,-1.463 -3.272326,-3.27232 V 44.96452 c 0,-1.809329 1.463006,-3.272233 3.272326,-3.272233 h 12.51185 c 1.80942,0 3.27232,1.462904 3.27232,3.272233 v 40.65383 c 0,1.80932 -1.4629,3.27232 -3.27232,3.27232 z m 7.81507,28.14189 H 85.425881 l -17.824448,17.82455 c -0.57747,0.57747 -1.385986,0.96245 -2.309879,0.96245 -1.809425,0 -3.272329,-1.46291 -3.272329,-3.27233 V 117.03256 H 30.874418 c -1.809424,0 -3.272328,-1.42444 -3.272328,-3.23377 V 19.902469 c 0,-1.770965 1.462904,-3.233869 3.272328,-3.233869 H 140.40088 c 1.77087,0 3.23377,1.462904 3.23377,3.233869 V 93.43342 c 0,0.84687 -0.30796,1.69385 -0.92389,2.30988 l -20.32692,20.32681 c -0.61592,0.61603 -1.42444,0.96245 -2.34833,0.96245 z M 90.854154,142.09471 67.485861,163.15303 C 66.831473,163.69204 66.061513,164 65.291554,164 v 0 H 43.386261 c -1.809424,0 -3.272328,-1.4629 -3.272328,-3.27233 V 142.09471 H 5.8508283 C 4.0414038,142.09471 2.5785,140.6318 2.5785,138.82238 V 23.059323 c 0,-0.693041 0.1924899,-1.30897 0.5774697,-1.847981 L 13.973863,2.655394 c 0.615929,-1.039465 1.69395,-1.616935 2.810333,-1.616935 V 1 H 159.14932 c 1.80942,0 3.27233,1.462904 3.27233,3.272328 v 98.554542 c 0,1.03946 -0.462,1.96335 -1.1934,2.54082 l -38.95988,35.84158 c -0.65449,0.57747 -1.42444,0.88544 -2.23286,0.88544 v 0 z M 64.059599,157.45534 87.312321,136.5125 c 0.577469,-0.57747 1.424444,-0.96245 2.309878,-0.96245 h 29.181351 l 37.112,-34.14763 V 7.544657 H 18.670636 L 9.0846,23.906201 V 135.55005 h 34.301661 c 1.809425,0 3.272329,1.46291 3.272329,3.27233 v 18.63296 z"
       id="path2378"
       style="fill:#000000;stroke-width:0.0384979" />
  </g>
</svg>
