<?xml version="1.0" encoding="UTF-8" standalone="no"?>
<svg
   width="165"
   height="165"
   version="1.1"
   style="clip-rule:evenodd;fill-rule:evenodd;image-rendering:optimizeQuality;shape-rendering:geometricPrecision;text-rendering:geometricPrecision"
   viewBox="0 0 4365.6249 4365.6249"
   id="svg77"
   sodipodi:docname="twitter_icon.svg"
   inkscape:version="1.2-beta (1b65182, 2022-04-05)"
   xmlns:inkscape="http://www.inkscape.org/namespaces/inkscape"
   xmlns:sodipodi="http://sodipodi.sourceforge.net/DTD/sodipodi-0.dtd"
   xmlns="http://www.w3.org/2000/svg"
   xmlns:svg="http://www.w3.org/2000/svg">
  <sodipodi:namedview
     id="namedview79"
     pagecolor="#ffffff"
     bordercolor="#666666"
     borderopacity="1.0"
     inkscape:pageshadow="2"
     inkscape:pageopacity="0.0"
     inkscape:pagecheckerboard="0"
     inkscape:deskcolor="#d1d1d1"
     inkscape:document-units="mm"
     showgrid="false"
     inkscape:zoom="2.1469907"
     inkscape:cx="172.8"
     inkscape:cy="172.8"
     inkscape:window-width="1861"
     inkscape:window-height="1025"
     inkscape:window-x="59"
     inkscape:window-y="27"
     inkscape:window-maximized="1"
     inkscape:current-layer="Layer_x0020_1" />
  <defs
     id="defs68">
    <style
       type="text/css"
       id="style66">  .fil0 {fill:#F0F0F0} .fil1 {fill:#011627;fill-rule:nonzero}  </style>
  </defs>
  <g
     id="Layer_x0020_1"
     inkscape:label="Layer 1"
     inkscape:groupmode="layer">
    <metadata
       id="CorelCorpID_0Corel-Layer" />
    <g
       id="_2744591229984"
       transform="matrix(0.86700586,0,0,0.86700586,-1781.2489,-1781.1661)"
       style="fill:#000000">
      <path
         class="fil1"
         d="m 4523,3967 h -456 c -6,0 -12,0 -17,-1 -335,-40 -642,-166 -898,-316 -300,-175 -535,-393 -670,-543 -17,84 -22,194 -5,318 21,158 79,337 194,516 5,9 9,15 13,20 13,17 22,29 28,52 22,85 -6,110 -108,137 l -4,1 c -49,12 -107,17 -166,13 h -7 c 32,106 83,214 151,319 98,151 231,296 391,424 l 2,2 c 5,3 10,7 14,10 25,18 41,29 50,66 21,87 -11,103 -99,125 -59,14 -117,21 -170,21 h -7 c 35,56 89,119 153,183 173,173 407,338 536,407 l 18,9 c 47,23 71,34 71,96 v 1 c -1,51 -20,65 -60,94 l -18,13 c -211,157 -454,239 -684,281 -79,15 -156,24 -229,31 223,97 448,166 671,208 566,105 1119,36 1602,-187 483,-223 897,-599 1184,-1107 166,-294 290,-633 361,-1012 99,-533 126,-562 344,-799 l 52,-56 h -143 c -51,0 -93,-42 -93,-94 0,-18 5,-35 14,-49 l 155,-245 c -133,20 -238,28 -324,27 -137,-1 -226,-24 -292,-59 -7,-4 -13,-9 -19,-14 -192,-143 -388,-211 -570,-217 -170,-6 -329,42 -462,130 -133,89 -240,218 -306,376 -75,180 -96,397 -42,631 v 4 c 2,7 6,19 8,29 l 1,4 c 13,49 19,75 -17,116 -33,38 -59,37 -111,35 z m -452,-187 h 416 c -51,-259 -24,-500 61,-703 80,-193 211,-351 375,-460 164,-109 361,-168 571,-161 218,7 451,86 675,254 42,21 103,35 201,36 113,1 271,-17 497,-61 v 1 c 22,-5 46,-1 67,12 44,28 57,85 29,129 l -177,280 h 175 c 23,-1 47,6 66,22 39,34 43,93 10,132 -79,92 -141,160 -192,215 -186,202 -208,226 -298,706 -74,399 -206,757 -382,1069 -307,544 -750,947 -1268,1185 -517,239 -1109,314 -1714,201 -347,-65 -698,-192 -1042,-385 -33,-14 -56,-47 -56,-85 0,-52 42,-94 93,-94 152,0 355,-3 564,-41 179,-33 365,-92 532,-197 -144,-90 -342,-237 -494,-390 -138,-138 -242,-286 -248,-414 -1,-10 0,-21 3,-32 13,-50 64,-80 113,-67 21,6 48,10 78,12 -120,-112 -223,-234 -304,-359 -112,-173 -184,-353 -210,-529 -2,-15 -1,-32 5,-48 19,-47 74,-71 121,-52 32,13 69,20 107,22 10,0 20,1 30,1 -106,-184 -161,-366 -183,-529 -33,-245 10,-453 72,-562 15,-29 44,-49 78,-52 52,-3 96,36 99,88 2,26 277,316 704,565 238,138 520,255 826,291 z"
         id="path73"
         style="fill:#000000" />
    </g>
  </g>
</svg>
