<?xml version="1.0" encoding="UTF-8" standalone="no"?>
<svg
   width="165"
   height="165"
   version="1.1"
   style="clip-rule:evenodd;fill-rule:evenodd;image-rendering:optimizeQuality;shape-rendering:geometricPrecision;text-rendering:geometricPrecision"
   viewBox="0 0 4365.6249 4365.6249"
   id="svg972"
   sodipodi:docname="youtube_icon.svg"
   inkscape:version="1.2-beta (1b65182, 2022-04-05)"
   xmlns:inkscape="http://www.inkscape.org/namespaces/inkscape"
   xmlns:sodipodi="http://sodipodi.sourceforge.net/DTD/sodipodi-0.dtd"
   xmlns="http://www.w3.org/2000/svg"
   xmlns:svg="http://www.w3.org/2000/svg">
  <sodipodi:namedview
     id="namedview974"
     pagecolor="#ffffff"
     bordercolor="#666666"
     borderopacity="1.0"
     inkscape:pageshadow="2"
     inkscape:pageopacity="0.0"
     inkscape:pagecheckerboard="0"
     inkscape:deskcolor="#d1d1d1"
     inkscape:document-units="mm"
     showgrid="false"
     inkscape:zoom="2.1469907"
     inkscape:cx="172.8"
     inkscape:cy="172.8"
     inkscape:window-width="1861"
     inkscape:window-height="1025"
     inkscape:window-x="59"
     inkscape:window-y="27"
     inkscape:window-maximized="1"
     inkscape:current-layer="Layer_x0020_1" />
  <defs
     id="defs961">
    <style
       type="text/css"
       id="style959">  .fil0 {fill:#F0F0F0} .fil1 {fill:#011627;fill-rule:nonzero}  </style>
  </defs>
  <g
     id="Layer_x0020_1"
     inkscape:label="Layer 1"
     inkscape:groupmode="layer">
    <metadata
       id="CorelCorpID_0Corel-Layer" />
    <g
       id="_2744577799920"
       transform="matrix(0.84133988,0,0,0.84133988,-1663.7934,-1663.799)"
       style="fill:#000000">
      <path
         class="fil1"
         d="m 2326,6335 c -211,-433 -317,-1099 -317,-1763 0,-664 106,-1330 317,-1763 10,-21 28,-36 48,-43 478,-207 1339,-311 2198,-311 862,0 1727,105 2204,313 19,9 33,23 42,41 211,433 317,1099 317,1763 0,664 -106,1330 -317,1763 -10,21 -28,36 -48,43 -478,207 -1339,311 -2198,311 -862,0 -1727,-105 -2204,-314 -19,-8 -33,-23 -42,-40 z M 2179,4572 c 0,626 95,1251 286,1661 461,191 1283,286 2107,286 825,0 1646,-95 2107,-286 191,-410 286,-1035 286,-1661 0,-626 -95,-1251 -286,-1661 -461,-191 -1282,-286 -2107,-286 -825,0 -1646,95 -2107,286 -191,410 -286,1035 -286,1661 z"
         id="path966"
         style="fill:#000000" />
      <path
         class="fil1"
         d="m 4061,3622 1292,880 c 39,27 49,79 23,118 -7,9 -15,17 -24,23 l -1295,882 c -39,26 -91,16 -118,-22 -10,-15 -14,-32 -14,-48 V 3689 c 0,-47 37,-85 84,-85 20,0 38,7 52,18 z m 1095,950 -1062,-723 v 1446 z"
         id="path968"
         style="fill:#000000" />
    </g>
  </g>
</svg>
